<svg xmlns="http://www.w3.org/2000/svg" viewBox="0 0 66.3479 100" width="66.3479" height="100" xmlns:c2pa="http://c2pa.org/manifest"><metadata><c2pa:manifest>AAAWgmp1bWIAAAAeanVtZGMycGEAEQAQgAAAqgA4m3EDYzJwYQAAABZcanVtYgAAAEdqdW1kYzJtYQARABCAAACqADibcQN1cm46YzJwYTo1OGQyNThhNS1mODRkLTQ2NjgtOGUyNS0yNjA1NTYwMzQyYWQAAAADl2p1bWIAAAApanVtZGMyYXMAEQAQgAAAqgA4m3EDYzJwYS5hc3NlcnRpb25zAAAAALxqdW1iAAAARGp1bWRjYm9yABEAEIAAAKoAOJtxE2MycGEuaW5ncmVkaWVudC52MwAAAAAYYzJzaP3q57LtkHgbsTgYIF4Mj9UAAABwY2JvcqNpZGM6Zm9ybWF0bWltYWdlL3N2Zyt4bWxqaW5zdGFuY2VJRHgseG1wOmlpZDoyYmE5ZjI1ZS0xNzFmLTRlNjItYjdmYy04NDM3NzM1YWM4MGFscmVsYXRpb25zaGlwaHBhcmVudE9mAAAB4mp1bWIAAABBanVtZGNib3IAEQAQgAAAqgA4m3ETYzJwYS5hY3Rpb25zLnYyAAAAABhjMnNo9t8+TiuRkSnYBCa0zL318wAAAZljYm9yomdhY3Rpb25zgqJmYWN0aW9ua2MycGEub3BlbmVkanBhcmFtZXRlcnOha2luZ3JlZGllbnRzgaJjdXJseC1zZWxmI2p1bWJmPWMycGEuYXNzZXJ0aW9ucy9jMnBhLmluZ3JlZGllbnQudjNkaGFzaFggbSKQs6rTCDPiuuZRlGbiGyiXj6OZ/gQ+U1d4g51B4n+kZmFjdGlvbngdY29tLmFudGhyb3BpYy5jbGF1ZGUucHJvdmlkZWRqcGFyYW1ldGVyc6F4H2NvbS5hbnRocm9waWMub3JpZ2luLWNvbmZpZGVuY2VndW5rbm93bmtkZXNjcmlwdGlvbnhmQ2xhdWRlIHByb3ZpZGVkIHRoaXMgZmlsZSBhdCB0aGUgcmVxdWVzdCBvZiBhIHVzZXIgYW5kIG1heSBoYXZlIGNyZWF0ZWQgb3IgbW9kaWZpZWQgdGhlIGZpbGUgY29udGVudHMubXNvZnR3YXJlQWdlbnShZG5hbWVmQ2xhdWRlcmFsbEFjdGlvbnNJbmNsdWRlZPUAAADIanVtYgAAAEBqdW1kY2JvcgARABCAAACqADibcRNjMnBhLmhhc2guZGF0YQAAAAAYYzJzaOwW5BCJyQOulqb38AAvMbUAAACAY2JvcqVjYWxnZnNoYTI1NmNwYWRNAAAAAAAAAAAAAAAAAGRoYXNoWCDKRqGmrcCcIzXRr4Wy/WBLodDBILDaV15tvR+N2Hrfr2RuYW1lbmp1bWJmIG1hbmlmZXN0amV4Y2x1c2lvbnOBomVzdGFydBieZmxlbmd0aBkeBAAAAj5qdW1iAAAAJ2p1bWRjMmNsABEAEIAAAKoAOJtxA2MycGEuY2xhaW0udjIAAAACD2Nib3KlY2FsZ2ZzaGEyNTZpc2lnbmF0dXJleE1zZWxmI2p1bWJmPS9jMnBhL3VybjpjMnBhOjU4ZDI1OGE1LWY4NGQtNDY2OC04ZTI1LTI2MDU1NjAzNDJhZC9jMnBhLnNpZ25hdHVyZWppbnN0YW5jZUlEeCx4bXA6aWlkOmQ4ODAyODRlLTQ5ODktNDRiOS1iZjRhLWNiM2QxYzJjMDk0MHJjcmVhdGVkX2Fzc2VydGlvbnODomN1cmx4LXNlbGYjanVtYmY9YzJwYS5hc3NlcnRpb25zL2MycGEuaW5ncmVkaWVudC52M2RoYXNoWCBtIpCzqtMIM+K65lGUZuIbKJePo5n+BD5TV3iDnUHif6JjdXJseCpzZWxmI2p1bWJmPWMycGEuYXNzZXJ0aW9ucy9jMnBhLmFjdGlvbnMudjJkaGFzaFggcFZJIWLfeJ0YowyxWmBLTM1hzaa4hqMvlieIJzv3E6OiY3VybHgpc2VsZiNqdW1iZj1jMnBhLmFzc2VydGlvbnMvYzJwYS5oYXNoLmRhdGFkaGFzaFggokYpec/kR5ZsYhl0KerxVYnGwS+YjtaYcJvrNkdTkOl0Y2xhaW1fZ2VuZXJhdG9yX2luZm+jZG5hbWVvQW50aHJvcGljIEZpbGVzZ3ZlcnNpb25lMS4wLjBrc3BlY1ZlcnNpb25lMi40LjAAABA4anVtYgAAAChqdW1kYzJjcwARABCAAACqADibcQNjMnBhLnNpZ25hdHVyZQAAABAIY2JvctKEWQISogEmGCFZAgowggIGMIIBjaADAgECAhRA5aAK7sI50L64g/oGQgU9Z1UTADAKBggqhkjOPQQDAzBJMRcwFQYDVQQKEw5BbnRocm9waWMsIFBCQzEuMCwGA1UEAxMlQW50aHJvcGljIENvbnRlbnQgQ3JlZGVudGlhbHMgUm9vdCBDQTAeFw0yNjA4MDcxODQzNTZaFw0yODA4MDYxOTQzNTZaMEQxFzAVBgNVBAoTDkFudGhyb3BpYywgUEJDMSkwJwYDVQQDEyBBbnRocm9waWMgQ2xhdWRlIENvbnRlbnQgU2lnbmluZzBZMBMGByqGSM49AgEGCCqGSM49AwEHA0IABJh6CmvLUBgFFNU0vUKlOVtE6djd17L5SuwX0LemFisBM3dkd/3cyjxFA3Qo5S46fX0/ihY0VZ7mfb9KF703t5OjWDBWMA4GA1UdDwEB/wQEAwIHgDAVBgNVHSUEDjAMBgorBgEEAYPoXgIBMAwGA1UdEwEB/wQCMAAwHwYDVR0jBBgwFoAUzlHiBIFOZFsj+OPEz5o+nMHXXMIwCgYIKoZIzj0EAwMDZwAwZAIwMXMdFJ4BetLLVY7ORuE9noqbbAZOZn/aArXyTwFAZfKrPzxF2vPoJNf1+UCdg1XGAjBwX1zd9WGqYkqmL5SFqw1QySjr1zJfpJM9+1rdDwSPLMOPOjKuiXjoU/pUUeG9RwmhY3BhZFkNngAAAAAAAAAAAAAAAAAAAAAAAAAAAAAAAAAAAAAAAAAAAAAAAAAAAAAAAAAAAAAAAAAAAAAAAAAAAAAAAAAAAAAAAAAAAAAAAAAAAAAAAAAAAAAAAAAAAAAAAAAAAAAAAAAAAAAAAAAAAAAAAAAAAAAAAAAAAAAAAAAAAAAAAAAAAAAAAAAAAAAAAAAAAAAAAAAAAAAAAAAAAAAAAAAAAAAAAAAAAAAAAAAAAAAAAAAAAAAAAAAAAAAAAAAAAAAAAAAAAAAAAAAAAAAAAAAAAAAAAAAAAAAAAAAAAAAAAAAAAAAAAAAAAAAAAAAAAAAAAAAAAAAAAAAAAAAAAAAAAAAAAAAAAAAAAAAAAAAAAAAAAAAAAAAAAAAAAAAAAAAAAAAAAAAAAAAAAAAAAAAAAAAAAAAAAAAAAAAAAAAAAAAAAAAAAAAAAAAAAAAAAAAAAAAAAAAAAAAAAAAAAAAAAAAAAAAAAAAAAAAAAAAAAAAAAAAAAAAAAAAAAAAAAAAAAAAAAAAAAAAAAAAAAAAAAAAAAAAAAAAAAAAAAAAAAAAAAAAAAAAAAAAAAAAAAAAAAAAAAAAAAAAAAAAAAAAAAAAAAAAAAAAAAAAAAAAAAAAAAAAAAAAAAAAAAAAAAAAAAAAAAAAAAAAAAAAAAAAAAAAAAAAAAAAAAAAAAAAAAAAAAAAAAAAAAAAAAAAAAAAAAAAAAAAAAAAAAAAAAAAAAAAAAAAAAAAAAAAAAAAAAAAAAAAAAAAAAAAAAAAAAAAAAAAAAAAAAAAAAAAAAAAAAAAAAAAAAAAAAAAAAAAAAAAAAAAAAAAAAAAAAAAAAAAAAAAAAAAAAAAAAAAAAAAAAAAAAAAAAAAAAAAAAAAAAAAAAAAAAAAAAAAAAAAAAAAAAAAAAAAAAAAAAAAAAAAAAAAAAAAAAAAAAAAAAAAAAAAAAAAAAAAAAAAAAAAAAAAAAAAAAAAAAAAAAAAAAAAAAAAAAAAAAAAAAAAAAAAAAAAAAAAAAAAAAAAAAAAAAAAAAAAAAAAAAAAAAAAAAAAAAAAAAAAAAAAAAAAAAAAAAAAAAAAAAAAAAAAAAAAAAAAAAAAAAAAAAAAAAAAAAAAAAAAAAAAAAAAAAAAAAAAAAAAAAAAAAAAAAAAAAAAAAAAAAAAAAAAAAAAAAAAAAAAAAAAAAAAAAAAAAAAAAAAAAAAAAAAAAAAAAAAAAAAAAAAAAAAAAAAAAAAAAAAAAAAAAAAAAAAAAAAAAAAAAAAAAAAAAAAAAAAAAAAAAAAAAAAAAAAAAAAAAAAAAAAAAAAAAAAAAAAAAAAAAAAAAAAAAAAAAAAAAAAAAAAAAAAAAAAAAAAAAAAAAAAAAAAAAAAAAAAAAAAAAAAAAAAAAAAAAAAAAAAAAAAAAAAAAAAAAAAAAAAAAAAAAAAAAAAAAAAAAAAAAAAAAAAAAAAAAAAAAAAAAAAAAAAAAAAAAAAAAAAAAAAAAAAAAAAAAAAAAAAAAAAAAAAAAAAAAAAAAAAAAAAAAAAAAAAAAAAAAAAAAAAAAAAAAAAAAAAAAAAAAAAAAAAAAAAAAAAAAAAAAAAAAAAAAAAAAAAAAAAAAAAAAAAAAAAAAAAAAAAAAAAAAAAAAAAAAAAAAAAAAAAAAAAAAAAAAAAAAAAAAAAAAAAAAAAAAAAAAAAAAAAAAAAAAAAAAAAAAAAAAAAAAAAAAAAAAAAAAAAAAAAAAAAAAAAAAAAAAAAAAAAAAAAAAAAAAAAAAAAAAAAAAAAAAAAAAAAAAAAAAAAAAAAAAAAAAAAAAAAAAAAAAAAAAAAAAAAAAAAAAAAAAAAAAAAAAAAAAAAAAAAAAAAAAAAAAAAAAAAAAAAAAAAAAAAAAAAAAAAAAAAAAAAAAAAAAAAAAAAAAAAAAAAAAAAAAAAAAAAAAAAAAAAAAAAAAAAAAAAAAAAAAAAAAAAAAAAAAAAAAAAAAAAAAAAAAAAAAAAAAAAAAAAAAAAAAAAAAAAAAAAAAAAAAAAAAAAAAAAAAAAAAAAAAAAAAAAAAAAAAAAAAAAAAAAAAAAAAAAAAAAAAAAAAAAAAAAAAAAAAAAAAAAAAAAAAAAAAAAAAAAAAAAAAAAAAAAAAAAAAAAAAAAAAAAAAAAAAAAAAAAAAAAAAAAAAAAAAAAAAAAAAAAAAAAAAAAAAAAAAAAAAAAAAAAAAAAAAAAAAAAAAAAAAAAAAAAAAAAAAAAAAAAAAAAAAAAAAAAAAAAAAAAAAAAAAAAAAAAAAAAAAAAAAAAAAAAAAAAAAAAAAAAAAAAAAAAAAAAAAAAAAAAAAAAAAAAAAAAAAAAAAAAAAAAAAAAAAAAAAAAAAAAAAAAAAAAAAAAAAAAAAAAAAAAAAAAAAAAAAAAAAAAAAAAAAAAAAAAAAAAAAAAAAAAAAAAAAAAAAAAAAAAAAAAAAAAAAAAAAAAAAAAAAAAAAAAAAAAAAAAAAAAAAAAAAAAAAAAAAAAAAAAAAAAAAAAAAAAAAAAAAAAAAAAAAAAAAAAAAAAAAAAAAAAAAAAAAAAAAAAAAAAAAAAAAAAAAAAAAAAAAAAAAAAAAAAAAAAAAAAAAAAAAAAAAAAAAAAAAAAAAAAAAAAAAAAAAAAAAAAAAAAAAAAAAAAAAAAAAAAAAAAAAAAAAAAAAAAAAAAAAAAAAAAAAAAAAAAAAAAAAAAAAAAAAAAAAAAAAAAAAAAAAAAAAAAAAAAAAAAAAAAAAAAAAAAAAAAAAAAAAAAAAAAAAAAAAAAAAAAAAAAAAAAAAAAAAAAAAAAAAAAAAAAAAAAAAAAAAAAAAAAAAAAAAAAAAAAAAAAAAAAAAAAAAAAAAAAAAAAAAAAAAAAAAAAAAAAAAAAAAAAAAAAAAAAAAAAAAAAAAAAAAAAAAAAAAAAAAAAAAAAAAAAAAAAAAAAAAAAAAAAAAAAAAAAAAAAAAAAAAAAAAAAAAAAAAAAAAAAAAAAAAAAAAAAAAAAAAAAAAAAAAAAAAAAAAAAAAAAAAAAAAAAAAAAAAAAAAAAAAAAAAAAAAAAAAAAAAAAAAAAAAAAAAAAAAAAAAAAAAAAAAAAAAAAAAAAAAAAAAAAAAAAAAAAAAAAAAAAAAAAAAAAAAAAAAAAAAAAAAAAAAAAAAAAAAAAAAAAAAAAAAAAAAAAAAAAAAAAAAAAAAAAAAAAAAAAAAAAAAAAAAAAAAAAAAAAAAAAAAAAAAAAAAAAAAAAAAAAAAAAAAAAAAAAAAAAAAAAAAAAAAAAAAAAAAAAAAAAAAAAAAAAAAAAAAAAAAAAAAAAAAAAAAAAAAAAAAAAAAAAAAAAAAAAAAAAAAAAAAAAAAAAAAAAAAAAAAAAAAAAAAAAAAAAAAAAAAAAAAAAAAAAAAAAAAAAAAAAAAAAAAAAAAAAAAAAAAAAAAAAAAAAAAAAAAAAAAAAAAAAAAAAAAAAAAAAAAAAAAAAAAAAAAAAAAAAAAAAAAAAAAAAAAAAAAAAAAAAAAAAAAAAAAAAAAAAAAAAAAAAAAAAAAAAAAAAAAAAAAAAAAAAAAAAAAAAAAAAAAAAAAAAAAAAAAAAAAAAAAAAAAAAAAAAAAAAAAAAAAAAAAAAAAAAAAAAAAAAAAAAAAAAAAAAAAAAAAAAAAAAAAAAAAAAAAAAAAAAAAAAAAAAAAAAAAAAAAAAAAAAAAAAAAAAAAAAAAAAAAAAAAAAAAAAAAAAAAAAAAAAAAAAAAAAAAAAAAAAAAAAAAAAAAAAAAAAAAAAAAAAAAAAAAAAAAAAAAAAAAAAAAAAAAAAAAAAAAAAAAAAAAAAAAAAAAAAAAAAAAAAAAAAAAAAAAAAAAAAAAAAAAAAAAAAAAAAAAAAAAAAAAAAAAAAAAAAAAAAAAAAAAAAAAAAAAAAAAAAAAAAAAAAAAAAAAAAAAAAAAAAAAAAAAAAAAAAAAAAAAAAAAAAAAAAAAAAAAAAAAAAAAAAAAAAAAAAAAAAAAAAAAAAAAAAAAAAAAAAAAAAAAAAAAAAAAAAAAAAAAAAAAAAAAAAAAAAAAAAAAAAAAAAAAAAAAAAAAAAAAAAAAAAAAAAAAAAAAAAAAAAAAAAAAAAAAAAAAAAAAAAAAAAAAAAAAAAAAAAAAAAAAAAAAAAAAAAAAAAAAAAAAAAAAAAAAAAAAAAAAAAAAAAAAAAAAAAAAAAAAAAAAAAAAAAAAAAAAAAAAAAAAAAAAAAAAAAAAAAAAAAAAAAAAAAAAAAAAAAAAAAAAAAAAAAAAAAAAAAAAAAAAAAAAAAAAAAAAAAAAAAAAAAAAAAAAAAAAAAAAAAAAAAAAAAAAAAAAAAAAAAAAAAAAAAAAAAAAAAAAAAAAAAAAAAAAAAAAAAAAAAAAAAAAAAAAAAAAAAAAAAAAAAAAAAAAAAAAAAAAAAAAAAAAAAAAAAAAAAAAAAAAAAAAAAAAAAAAAAAAAAAAAAAAAAAAAAAAAAAAAAAAAAAAAAAAAAAAAAAAAAAAAAAAAAAAAAAAAAAAAAAAAAAAAAAAAAAAAAAAAAAAAAAAAAAAAAAAAAAAAAAAAAAAAAAAAAAAAAAAAAAAAAAAAAAAAAAAAAAAAAAAAAAAAAAAAAAAAAAAAAAAAAAAAAAAAAAAAAAAAAAAAAAAAAAAAAAAAAAAAAAAAAAAAAAAAAAAAAAAAAAAAAAAAAAAPZYQDIw0E5CRvujuEPUcXPlpTa2UJGKUww+WqGEQ/fNEbtFyoc3X020blw9SIUx/jceE8y+KK6b3OfoMg19r4YqQFA=</c2pa:manifest></metadata>
<g transform="translate(-3.3824,-9.6016) scale(0.5245)">
<path fill="#231F20" d="M 26.027 188.145 L 26.996 188.145 L 27.469 186.965 L 30.215 186.965 L 30.691 188.145 L 31.738 188.145 L 28.906 181.617 L 28.793 181.617 Z M 27.812 186.133 L 28.516 184.371 C 28.668 184 28.82 183.449 28.828 183.422 C 28.84 183.469 29.008 184.02 29.152 184.371 L 29.855 186.133 Z M 34.695 188.145 L 35.703 188.145 L 35.703 185.75 L 36.871 185.75 L 38.27 188.145 L 39.418 188.145 L 37.898 185.59 C 38.688 185.312 39.211 184.695 39.211 183.734 C 39.211 182.309 38.195 181.684 36.863 181.684 L 34.695 181.684 Z M 35.703 184.906 L 35.703 182.566 L 36.824 182.566 C 37.672 182.566 38.176 182.898 38.176 183.734 C 38.176 184.551 37.68 184.906 36.824 184.906 Z M 45.426 188.23 C 46.633 188.23 47.547 187.707 48.109 186.852 L 47.34 186.312 C 46.918 186.93 46.32 187.328 45.426 187.328 C 44.086 187.328 43.137 186.293 43.137 184.914 C 43.137 183.535 44.086 182.508 45.426 182.508 C 46.273 182.508 46.883 182.879 47.242 183.441 L 48.012 182.887 C 47.441 182.035 46.586 181.605 45.426 181.605 C 43.594 181.605 42.109 182.984 42.109 184.914 C 42.109 186.844 43.594 188.23 45.426 188.23 Z M 51.152 188.145 L 52.156 188.145 L 52.156 185.457 L 55.266 185.457 L 55.266 188.145 L 56.273 188.145 L 56.273 181.684 L 55.266 181.684 L 55.266 184.562 L 52.156 184.562 L 52.156 181.684 L 51.152 181.684 Z M 59.773 188.145 L 60.77 188.145 L 60.77 181.684 L 59.773 181.684 Z M 65.707 188.145 L 66.703 188.145 L 66.703 182.566 L 68.621 182.566 L 68.621 181.684 L 63.785 181.684 L 63.785 182.566 L 65.707 182.566 Z M 71.609 188.145 L 75.848 188.145 L 75.848 187.262 L 72.613 187.262 L 72.613 185.332 L 75.363 185.332 L 75.363 184.469 L 72.613 184.469 L 72.613 182.566 L 75.715 182.566 L 75.715 181.684 L 71.609 181.684 Z M 81.969 188.23 C 83.176 188.23 84.09 187.707 84.652 186.852 L 83.879 186.312 C 83.461 186.93 82.863 187.328 81.969 187.328 C 80.629 187.328 79.68 186.293 79.68 184.914 C 79.68 183.535 80.629 182.508 81.969 182.508 C 82.816 182.508 83.426 182.879 83.785 183.441 L 84.555 182.887 C 83.984 182.035 83.129 181.605 81.969 181.605 C 80.137 181.605 78.652 182.984 78.652 184.914 C 78.652 186.844 80.137 188.23 81.969 188.23 Z M 89.09 188.145 L 90.09 188.145 L 90.09 182.566 L 92.008 182.566 L 92.008 181.684 L 87.172 181.684 L 87.172 182.566 L 89.09 182.566 Z M 97.418 188.23 C 98.816 188.23 99.879 187.441 99.879 185.875 L 99.879 181.684 L 98.883 181.684 L 98.883 185.816 C 98.883 186.863 98.359 187.328 97.418 187.328 C 96.477 187.328 95.965 186.863 95.965 185.816 L 95.965 181.684 L 94.957 181.684 L 94.957 185.875 C 94.957 187.441 96.012 188.23 97.418 188.23 Z M 103.305 188.145 L 104.309 188.145 L 104.309 185.75 L 105.48 185.75 L 106.879 188.145 L 108.027 188.145 L 106.508 185.59 C 107.297 185.312 107.816 184.695 107.816 183.734 C 107.816 182.309 106.801 181.684 105.469 181.684 L 103.305 181.684 Z M 104.309 184.906 L 104.309 182.566 L 105.434 182.566 C 106.277 182.566 106.781 182.898 106.781 183.734 C 106.781 184.551 106.289 184.906 105.434 184.906 Z M 111.059 188.145 L 115.301 188.145 L 115.301 187.262 L 112.066 187.262 L 112.066 185.332 L 114.812 185.332 L 114.812 184.469 L 112.066 184.469 L 112.066 182.566 L 115.168 182.566 L 115.168 181.684 L 111.059 181.684 L 111.059 188.145 "/>
<path fill="#231F20" d="M 6.496 39.027 L 6.496 165.465 L 132.93 165.465 L 132.93 39.027 L 6.496 39.027 "/>
<path fill="#FFFFFF" d="M 24.535 148.164 C 24.934 148.559 26.176 149.492 28.426 149.492 C 30.965 149.492 32.504 147.695 32.504 145.918 C 32.504 143.566 30.359 142.512 29.012 141.973 C 27.648 141.422 27.129 140.938 27.129 140.297 C 27.129 139.832 27.594 139.414 28.219 139.414 C 29.273 139.414 30.535 140.367 30.691 140.453 C 30.844 140.574 31.156 140.418 31.277 140.227 L 32.156 138.898 C 32.227 138.777 32.262 138.465 32.055 138.344 C 31.535 137.965 30.152 137.051 28.355 137.051 C 25.695 137.051 24.363 138.777 24.363 140.488 C 24.363 142.562 26.23 143.723 27.715 144.309 C 28.891 144.777 29.496 145.328 29.496 146.055 C 29.496 146.66 28.996 147.094 28.305 147.094 C 27.16 147.094 25.918 146.176 25.848 146.141 C 25.727 146.055 25.402 146.02 25.262 146.246 L 24.449 147.68 C 24.312 147.922 24.363 147.988 24.535 148.164 Z M 69.23 148.992 C 69.23 149.164 69.383 149.32 69.559 149.32 L 71.629 149.32 C 71.801 149.32 71.957 149.164 71.957 148.992 L 71.957 137.551 C 71.957 137.379 71.801 137.223 71.629 137.223 L 69.559 137.223 C 69.383 137.223 69.23 137.379 69.23 137.551 Z M 108.941 148.164 C 109.34 148.559 110.582 149.492 112.832 149.492 C 115.371 149.492 116.91 147.695 116.91 145.918 C 116.91 143.566 114.766 142.512 113.418 141.973 C 112.051 141.422 111.535 140.938 111.535 140.297 C 111.535 139.832 112 139.414 112.625 139.414 C 113.68 139.414 114.938 140.367 115.094 140.453 C 115.25 140.574 115.562 140.418 115.684 140.227 L 116.562 138.898 C 116.633 138.777 116.668 138.465 116.461 138.344 C 115.941 137.965 114.559 137.051 112.762 137.051 C 110.098 137.051 108.77 138.777 108.77 140.488 C 108.77 142.562 110.637 143.723 112.121 144.309 C 113.297 144.777 113.902 145.328 113.902 146.055 C 113.902 146.66 113.402 147.094 112.711 147.094 C 111.566 147.094 110.324 146.176 110.254 146.141 C 110.133 146.055 109.805 146.02 109.668 146.246 L 108.855 147.68 C 108.719 147.922 108.77 147.988 108.941 148.164 "/>
<path fill="#FFFFFF" d="M 24.262 102.734 C 24.262 106.195 27.008 108.941 30.465 108.941 C 33.922 108.941 36.688 106.195 36.688 102.734 C 36.688 99.277 33.922 96.496 30.465 96.496 C 27.008 96.496 24.262 99.277 24.262 102.734 Z M 27.023 102.734 C 27.023 100.836 28.578 99.262 30.465 99.262 C 32.367 99.262 33.922 100.836 33.922 102.734 C 33.922 104.621 32.367 106.176 30.465 106.176 C 28.578 106.176 27.023 104.621 27.023 102.734 Z M 108.84 108.438 C 108.84 108.613 108.977 108.766 109.168 108.766 L 111.207 108.766 C 111.379 108.766 111.531 108.613 111.531 108.438 L 111.531 104.375 L 113.348 104.375 C 115.457 104.375 117.203 102.633 117.203 100.488 C 117.203 98.398 115.457 96.668 113.332 96.668 L 109.168 96.668 C 108.977 96.668 108.84 96.824 108.84 96.996 Z M 111.531 101.855 L 111.531 99.207 L 113.176 99.207 C 113.922 99.207 114.543 99.762 114.543 100.488 C 114.543 101.27 113.922 101.855 113.176 101.855 L 111.531 101.855 "/>
<path fill="#FFFFFF" d="M 24.535 67.059 C 24.934 67.453 26.176 68.387 28.426 68.387 C 30.965 68.387 32.504 66.59 32.504 64.812 C 32.504 62.461 30.359 61.406 29.012 60.871 C 27.648 60.316 27.129 59.832 27.129 59.191 C 27.129 58.727 27.594 58.309 28.219 58.309 C 29.273 58.309 30.535 59.262 30.691 59.348 C 30.844 59.469 31.156 59.312 31.277 59.121 L 32.156 57.793 C 32.227 57.672 32.262 57.359 32.055 57.238 C 31.535 56.859 30.152 55.945 28.355 55.945 C 25.695 55.945 24.363 57.672 24.363 59.383 C 24.363 61.457 26.23 62.613 27.715 63.203 C 28.891 63.672 29.496 64.223 29.496 64.949 C 29.496 65.555 28.996 65.988 28.305 65.988 C 27.16 65.988 25.918 65.07 25.848 65.035 C 25.727 64.949 25.402 64.914 25.262 65.141 L 24.449 66.574 C 24.312 66.816 24.363 66.887 24.535 67.059 Z M 67.266 67.887 C 67.266 68.059 67.406 68.215 67.594 68.215 L 69.648 68.215 C 69.824 68.215 69.977 68.059 69.977 67.887 L 69.977 62.375 L 73.852 56.617 C 73.988 56.395 73.852 56.117 73.574 56.117 L 71.328 56.117 C 71.172 56.117 71.102 56.203 71.051 56.273 L 68.648 59.816 L 66.246 56.273 C 66.195 56.203 66.109 56.117 65.969 56.117 L 63.723 56.117 C 63.445 56.117 63.309 56.395 63.445 56.617 L 67.266 62.391 Z M 105.66 67.887 C 105.66 68.059 105.812 68.215 105.984 68.215 L 108.043 68.215 C 108.23 68.215 108.371 68.059 108.371 67.887 L 108.371 61.441 L 108.387 61.441 L 115.215 68.301 C 115.25 68.336 115.387 68.387 115.441 68.387 L 115.715 68.387 C 115.891 68.387 116.043 68.25 116.043 68.074 L 116.043 56.445 C 116.043 56.273 115.891 56.117 115.715 56.117 L 113.645 56.117 C 113.453 56.117 113.316 56.273 113.316 56.445 L 113.316 62.582 L 113.297 62.582 L 106.402 55.945 L 105.969 55.945 C 105.797 55.945 105.641 56.082 105.641 56.254 L 105.66 67.887 "/>
</g>
</svg>
